<?xml version="1.0" encoding="UTF-8" standalone="no"?>
<!-- Created with Inkscape (http://www.inkscape.org/) -->

<svg
   xmlns:dc="http://purl.org/dc/elements/1.1/"
   xmlns:cc="http://creativecommons.org/ns#"
   xmlns:rdf="http://www.w3.org/1999/02/22-rdf-syntax-ns#"
   xmlns:svg="http://www.w3.org/2000/svg"
   xmlns="http://www.w3.org/2000/svg"
   xmlns:sodipodi="http://sodipodi.sourceforge.net/DTD/sodipodi-0.dtd"
   xmlns:inkscape="http://www.inkscape.org/namespaces/inkscape"
   width="744.09448819"
   height="1052.3622047"
   id="svg2"
   version="1.1"
   inkscape:version="0.48.3.1 r9886"
   sodipodi:docname="logos.svg">
  <sodipodi:namedview
     id="base"
     pagecolor="#ffffff"
     bordercolor="#666666"
     borderopacity="1.0"
     inkscape:pageopacity="0.0"
     inkscape:pageshadow="2"
     inkscape:zoom="0.7"
     inkscape:cx="399.22806"
     inkscape:cy="498.54128"
     inkscape:document-units="px"
     inkscape:current-layer="capa1"
     showgrid="false"
     showguides="false"
     inkscape:guide-bbox="true"
     inkscape:window-width="1365"
     inkscape:window-height="766"
     inkscape:window-x="0"
     inkscape:window-y="1080"
     inkscape:window-maximized="0">
    <inkscape:grid
       type="xygrid"
       id="grid6637" />
  </sodipodi:namedview>
  <defs
     id="defs4">
    <inkscape:perspective
       sodipodi:type="inkscape:persp3d"
       inkscape:vp_x="0 : 526.18109 : 1"
       inkscape:vp_y="0 : 1000 : 0"
       inkscape:vp_z="744.09448 : 526.18109 : 1"
       inkscape:persp3d-origin="372.04724 : 350.78739 : 1"
       id="perspective5507" />
  </defs>
  <metadata
     id="metadata7">
    <rdf:RDF>
      <cc:Work
         rdf:about="">
        <dc:format>image/svg+xml</dc:format>
        <dc:type
           rdf:resource="http://purl.org/dc/dcmitype/StillImage" />
        <dc:title></dc:title>
      </cc:Work>
    </rdf:RDF>
  </metadata>
  <g
     id="capa1"
     inkscape:groupmode="layer"
     inkscape:label="Capa 1">
    <rect
       style="fill:#dde9af;fill-opacity:1;stroke:none"
       id="rect3192"
       width="541.42859"
       height="155.27147"
       x="39.28574"
       y="304.01215" />
    <g
       id="g3256"
       transform="translate(23.233508,51.517779)">
      <path
         sodipodi:nodetypes="cccccc"
         inkscape:connector-curvature="0"
         id="path5387"
         d="m 90.310844,149.88695 c -3.39492,8.68555 -13.83218,11.66908 -22.13017,13.66221 -1.35458,-1.99286 11.66476,-5.5128 16.18818,-5.25933 4.9694,-1.40187 13.67597,3.71561 6.83924,4.50289 -7.66048,1.09837 -20.48638,5.28588 -28.17814,2.38679 0.99632,-7.09475 21.07334,-15.34132 27.28089,-15.29256 z"
         style="fill:#2ca02c;fill-opacity:1;stroke:none" />
      <path
         sodipodi:nodetypes="cccccc"
         inkscape:connector-curvature="0"
         id="path5405"
         d="m 228.61761,131.62358 c 11.45577,-12.72016 36.11453,-7.431 40.60841,9.23227 4.8028,23.46966 -29.34993,28.3361 -42.72485,17.24809 -6.13114,-7.69378 4.46974,-12.45306 11.25398,-7.01489 22.84613,12.48392 21.91466,-14.48167 9.97767,-18.84404 -5.9489,-2.51842 -13.03529,-2.92391 -19.11521,-0.62143 z"
         style="fill:#2ca02c;fill-opacity:1;stroke:none" />
      <path
         inkscape:connector-curvature="0"
         id="text5444"
         d="m 77.499909,189.45214 c -0.0851,-8.41204 16.468286,-8.04508 14.56991,-0.54691 -4.71247,1.50509 -9.74859,-0.009 -14.56991,0.54691 z m -0.0994,3.18216 c 6.0162,-1.40766 12.57789,2.19491 18.253636,-0.93473 4.843405,-4.81745 -2.468696,-11.45254 -7.587886,-11.87315 -7.50973,-1.81886 -15.51853,4.46168 -15.01749,12.30877 -0.12389,8.35957 8.86422,12.74489 16.20937,11.06599 3.68668,1.34896 10.382316,-5.38915 5.276866,-5.6908 -5.123876,2.77943 -14.160586,4.21735 -16.728386,-2.56753 -0.24918,-0.74708 -0.39458,-1.52131 -0.40611,-2.30855 z m 29.512621,-0.74582 c -1.27445,-8.0243 12.09559,-11.0517 14.86209,-3.63178 3.55552,7.16564 -6.8125,14.99597 -12.60408,9.33617 -1.42076,-1.5148 -2.40579,-3.59149 -2.25801,-5.70439 z m 15.91079,10.88894 c 4.60277,1.9775 7.25181,-3.02802 3.22613,-5.36125 -0.63184,-7.07899 -0.002,-14.20856 0.0661,-21.26588 1.17839,-5.03352 -6.88239,-7.96366 -7.99373,-2.92611 5.13184,0.76612 5.73575,6.91575 2.8903,9.81889 -5.83925,-6.27797 -16.84187,-1.31029 -18.22334,6.52891 -2.5546,8.67781 8.52732,17.54203 16.14942,12.43472 1.71321,-1.6635 3.84365,-2.38461 3.8851,0.77072 z m 16.43596,-8.94981 c 0.39101,-4.68595 1.61077,-16.74697 -6.46821,-12.57907 5.88519,5.4928 -0.38598,14.74567 5.64825,20.70604 4.96133,3.52224 10.29925,-2.52089 15.79426,0.89436 6.90791,-0.79361 -2.52704,-7.1832 0.43233,-11.80333 2.52864,-5.96041 -1.39939,-15.43971 -8.12122,-9.14759 2.15177,2.07162 6.30508,4.38293 4.98746,9.16855 0.97074,6.62591 -8.04333,12.28026 -12.00755,5.68332 -0.44536,-0.90974 -0.49399,-1.95533 -0.26532,-2.92228 z m 42.68876,-12.13198 c -3.18216,0 -6.36431,0 -9.54647,0 2.59057,-3.0757 -3.1816,-11.94672 -3.46463,-4.78698 2.61723,5.5505 -11.45669,5.67071 -2.86137,8.29852 6.92001,1.52396 -1.20518,10.34182 4.05144,14.5292 3.48977,5.41069 12.44056,4.76981 16.25917,0.0758 -0.93004,-4.67253 -10.56835,3.1201 -13.46665,-2.74599 -2.00818,-4.35772 -1.9488,-13.35792 5.14552,-12.38477 2.53858,1.61883 10.00331,-1.13206 3.88299,-2.98575 z m 15.19293,7.75651 c -0.0749,-8.39603 16.43083,-8.06597 14.58367,-0.54759 -4.70859,1.50511 -9.76303,-0.007 -14.58367,0.54759 z m -0.0994,3.18216 c 6.0162,-1.40766 12.57789,2.19491 18.25364,-0.93473 4.84341,-4.81745 -2.4687,-11.45254 -7.58789,-11.87315 -7.50973,-1.81886 -15.51853,4.46168 -15.01749,12.30877 -0.12389,8.35957 8.86422,12.74489 16.20937,11.06599 3.68479,1.34587 10.38462,-5.38257 5.27529,-5.69516 -5.12247,2.76362 -14.15863,4.2428 -16.7209,-2.55333 -0.25055,-0.75019 -0.39133,-1.52863 -0.41202,-2.31839 z m 49.05306,-4.97212 c 2.77661,-7.16175 -6.01688,-7.92082 -10.68725,-7.94412 -7.83168,-0.90909 -14.66637,7.06609 -12.51744,14.61649 2.00925,9.53603 15.79669,12.42999 21.79638,5.08937 0.87096,-5.97438 -7.58793,2.01402 -11.03806,0.0524 -7.73983,0.0774 -9.55937,-11.7793 -2.7741,-14.77191 6.08732,-4.43999 9.86514,3.13877 14.61159,4.3682 l 0.40319,-0.49086 0.20569,-0.91957 0,0 z"
         style="font-size:49.72119904px;font-style:normal;font-variant:normal;font-weight:normal;font-stretch:normal;line-height:125%;letter-spacing:0px;word-spacing:0px;fill:#217821;fill-opacity:1;stroke:none;font-family:Courier 10 Pitch;-inkscape-font-specification:Courier 10 Pitch" />
      <path
         inkscape:connector-curvature="0"
         id="path5385"
         d="m 92.367404,163.78742 c -20.82862,-20.4709 -16.88037,-57.21296 3.66183,-76.433563 7.364396,-7.63534 17.630006,-10.67207 27.523896,-13.37405 31.35054,-9.41586 68.19263,-5.4234 93.96731,15.81803 9.73813,8.37038 19.11854,19.303723 19.16116,32.875013 0.49383,13.83515 -3.41886,29.69222 -15.36509,37.99438 -3.88554,2.78634 -14.09114,4.86306 -7.01608,-1.63865 10.40211,-15.22562 14.14309,-36.91949 3.24791,-52.90385 -14.0411,-19.029703 -37.66036,-29.125423 -60.71391,-31.466293 -15.10987,-1.06178 -31.44478,-0.27955 -44.79281,7.58709 -24.232946,15.80436 -27.509186,53.793953 -8.54455,74.920503 -0.5424,5.56224 -7.835206,3.97523 -11.129666,6.62139 z"
         style="fill:#217821;fill-opacity:1;stroke:none" />
    </g>
    <path
       style="fill:#2d5016;fill-opacity:1;stroke:none"
       d="m 106.48084,316.65948 0,55.82925 0,29.24393 0,23.92682 8,0 0,-23.92682 16.00001,0 0,23.92682 7.99999,0 0,-23.92682 24.00002,0 0,23.92682 8,0 0,-23.92682 16.00001,0 0,23.92682 8,0 0,-23.92682 0,-15.95122 7.99997,0 0,-37.21953 0,-15.95122 -7.99997,0 0,15.95122 -24.00001,0 0,-15.95122 -8,0 0,15.95122 0,23.92682 -48.00002,0 0,-55.82925 -8,0 z m 64.00002,39.87804 8,0 0,7.97562 -8,0 0,-7.97562 z m 16.00001,0 8,0 0,7.97562 -8,0 0,-7.97562 z"
       id="rect6639"
       inkscape:connector-curvature="0"
       inkscape:export-filename="/home/bromagosa/edutec/devdocs/logo.png"
       inkscape:export-xdpi="90"
       inkscape:export-ydpi="90" />
    <g
       style="font-size:119.99999237px;font-style:normal;font-weight:normal;line-height:125%;letter-spacing:0px;word-spacing:0px;fill:#2d5016;fill-opacity:1;stroke:none;font-family:Sans"
       id="text6745"
       transform="matrix(0.46666667,0,0,0.46666667,-243.77229,-13.811639)"
       inkscape:export-filename="/home/bromagosa/edutec/devdocs/logo.png"
       inkscape:export-xdpi="90"
       inkscape:export-ydpi="90">
      <path
         inkscape:connector-curvature="0"
         d="m 1046.2567,941.72382 0,-15 60,0 0,15 -60,0 m -15,-15 0,-45 15,0 0,15 45,0 0,-15 15,0 0,30 -60,0 0,15 -15,0 m 15,-45 0,-15 45,0 0,15 -45,0"
         style="font-variant:normal;font-stretch:normal;fill:#2d5016;font-family:Minecraftia;-inkscape-font-specification:Minecraftia"
         id="path3045" />
      <path
         inkscape:connector-curvature="0"
         d="m 1121.2567,926.72382 0,-45 15,0 0,45 -15,0 m 15,-45 0,-15 30,0 0,15 -30,0 m 0,60 0,-15 45,0 0,-30 -15,0 0,-15 15,0 0,-45 15,0 0,105 -60,0"
         style="font-variant:normal;font-stretch:normal;fill:#2d5016;font-family:Minecraftia;-inkscape-font-specification:Minecraftia"
         id="path3047" />
      <path
         inkscape:connector-curvature="0"
         d="m 1211.2567,926.72382 0,-60 15,0 0,60 -15,0 m 15,15 0,-15 45,0 0,-60 15,0 0,75 -60,0"
         style="font-variant:normal;font-stretch:normal;fill:#2d5016;font-family:Minecraftia;-inkscape-font-specification:Minecraftia"
         id="path3049" />
      <path
         inkscape:connector-curvature="0"
         d="m 1331.2567,941.72382 0,-15 15,0 0,15 -15,0 m -15,-15 0,-45 -15,0 0,-15 15,0 0,-30 15,0 0,30 15,0 0,15 -15,0 0,45 -15,0"
         style="font-variant:normal;font-stretch:normal;fill:#2d5016;font-family:Minecraftia;-inkscape-font-specification:Minecraftia"
         id="path3051" />
      <path
         inkscape:connector-curvature="0"
         d="m 1376.2567,941.72382 0,-15 60,0 0,15 -60,0 m -15,-15 0,-45 15,0 0,15 45,0 0,-15 15,0 0,30 -60,0 0,15 -15,0 m 15,-45 0,-15 45,0 0,15 -45,0"
         style="font-variant:normal;font-stretch:normal;fill:#2d5016;font-family:Minecraftia;-inkscape-font-specification:Minecraftia"
         id="path3053" />
      <path
         inkscape:connector-curvature="0"
         d="m 1466.2567,941.72382 0,-15 45,0 0,15 -45,0 m 45,-15 0,-15 15,0 0,15 -15,0 m -60,0 0,-45 15,0 0,45 -15,0 m 60,-30 0,-15 15,0 0,15 -15,0 m -45,-15 0,-15 45,0 0,15 -45,0"
         style="font-variant:normal;font-stretch:normal;fill:#2d5016;font-family:Minecraftia;-inkscape-font-specification:Minecraftia"
         id="path3055" />
    </g>
    <g
       id="g3247"
       transform="translate(54.285714,250)">
      <path
         sodipodi:nodetypes="cccccccccccccccsscccccccssssssssss"
         inkscape:connector-curvature="0"
         id="path6611"
         d="m 72.343524,677.62691 0.519174,-74.73283 0.519174,-74.73283 3.908597,37.3664 3.908681,37.36643 29.2916,0 29.29169,0 0.78665,-27.40205 0.78665,-27.40203 5.02588,12.45546 5.02589,12.45548 13.28583,0 13.28584,0 5.02588,-12.45548 5.02589,-12.45546 -0.39227,34.87531 c -0.21576,19.18142 -3.81518,48.32725 -7.99873,64.76845 l -7.60656,29.89315 c -0.78022,-56.40019 -15.62643,-71.36423 -24.59839,0 -3.03796,-11.62507 -6.07593,-23.25023 -9.11382,-34.87529 l -14.21598,0 -14.2159,0 c -0.77063,11.62506 -1.54117,23.25022 -2.31181,34.87529 -7.725163,-44.95154 -24.085553,-48.28504 -35.233966,0 z m 82.385436,-84.69722 c 2.74018,0 4.98224,-2.24198 4.98224,-4.98218 0,-2.74021 -2.24206,-4.9822 -4.98224,-4.9822 -2.74017,0 -4.98214,2.24199 -4.98214,4.9822 0,2.7402 2.24197,4.98218 4.98214,4.98218 z m 19.92876,0 c 2.74016,0 4.98223,-2.24198 4.98223,-4.98218 0,-2.74021 -2.24207,-4.9822 -4.98223,-4.9822 -2.74017,0 -4.98215,2.24199 -4.98215,4.9822 0,2.7402 2.24198,4.98218 4.98215,4.98218 z"
         style="fill:#2d5016;fill-opacity:1" />
      <text
         sodipodi:linespacing="125%"
         id="text3009"
         y="676.38025"
         x="211.23799"
         style="font-size:62.33189392px;font-style:normal;font-weight:normal;line-height:125%;letter-spacing:0px;word-spacing:0px;fill:#2d5016;fill-opacity:1;stroke:none;font-family:Sans"
         xml:space="preserve"><tspan
           style="font-style:normal;font-variant:normal;font-weight:normal;font-stretch:normal;fill:#2d5016;fill-opacity:1;font-family:Prosto One;-inkscape-font-specification:Prosto One"
           y="676.38025"
           x="211.23799"
           id="tspan3011"
           sodipodi:role="line">edutec</tspan></text>
    </g>
    <path
       style="font-size:40px;font-style:normal;font-weight:normal;line-height:125%;letter-spacing:-0.07px;word-spacing:0px;fill:#2d5016;fill-opacity:1;stroke:none;font-family:Sans"
       d="m 273.50808,582.97515 0,10.9317 0,32.79501 -5.46586,0 0,5.46584 -5.46583,0 0,71.0559 0,5.46585 -5.46583,0 0,-5.46585 -5.46583,0 0,5.46585 -5.46586,0 0,-5.46585 -10.93169,0 0,5.46585 -43.72668,0 -5.46585,0 0,-5.46585 -5.46584,0 0,-5.46585 -5.46583,0 0,-10.93171 -5.46583,0 0,-5.46579 -5.46586,0 0,-5.46583 -5.46582,0 0,-5.46585 -10.9317,0 0,-5.46584 10.9317,0 5.46582,0 0,5.46584 5.46586,0 0,5.46585 5.46583,0 0,5.46583 5.46583,0 0,5.46579 5.46584,0 0,5.46584 5.46585,0 0,-27.32915 5.46584,0 0,-10.9317 5.46582,0 0,-5.46585 16.39753,0 0,-10.93165 5.46583,0 0,-5.46583 0,-5.46584 5.46583,0 0,-32.79501 0,-10.9317 5.46583,0 0,5.46584 5.46586,0 0,5.46586 21.86335,0 0,-5.46586 5.46583,0 0,-5.46584 5.46586,0 z m -5.46586,27.32917 -10.93166,0 0,5.46583 10.93166,0 0,-5.46583 z m -21.86335,0 -10.93169,0 0,5.46583 10.93169,0 0,-5.46583 z"
       id="rect3073"
       inkscape:connector-curvature="0" />
    <g
       style="font-size:40px;font-style:normal;font-weight:normal;line-height:125%;letter-spacing:-0.07px;word-spacing:0px;fill:#2d5016;fill-opacity:1;stroke:none;font-family:Sans"
       transform="matrix(2.8310044,0,0,2.6857144,-311.69016,-1811.0881)"
       id="g3054">
      <g
         style="fill:#2d5016;fill-opacity:1"
         transform="translate(-0.94759,0)"
         id="g3062">
        <path
           inkscape:connector-curvature="0"
           id="path3024"
           style="font-variant:normal;font-stretch:normal;fill:#2d5016;fill-opacity:1;font-family:Mini Pixel-7;-inkscape-font-specification:Mini Pixel-7"
           d="m 215.16249,924.21497 2,0 0,-2 8,0 0,2 2,0 0,8 -8,0 0,2 8,0 0,4 -10,0 0,-2 -2,0 0,-12 m 4,2 0,2 4,0 0,-2 -4,0" />
        <path
           inkscape:connector-curvature="0"
           id="path3026"
           style="font-variant:normal;font-stretch:normal;fill:#2d5016;fill-opacity:1;font-family:Mini Pixel-7;-inkscape-font-specification:Mini Pixel-7"
           d="m 229.15499,924.21497 2,0 0,-2 6,0 0,-6 4,0 0,22 -10,0 0,-2 -2,0 0,-12 m 4,10 4,0 0,-8 -4,0 0,8" />
        <path
           inkscape:connector-curvature="0"
           id="path3028"
           style="font-variant:normal;font-stretch:normal;fill:#2d5016;fill-opacity:1;font-family:Mini Pixel-7;-inkscape-font-specification:Mini Pixel-7"
           d="m 243.14749,922.21497 4,0 0,12 4,0 0,-12 4,0 0,16 -10,0 0,-2 -2,0 0,-14" />
        <path
           inkscape:connector-curvature="0"
           id="path3030"
           style="font-variant:normal;font-stretch:normal;fill:#2d5016;fill-opacity:1;font-family:Mini Pixel-7;-inkscape-font-specification:Mini Pixel-7"
           d="m 257.13999,922.21497 2,0 0,-4 4,0 0,4 4,0 0,4 -4,0 0,8 4,0 0,4 -6,0 0,-2 -2,0 0,-10 -2,0 0,-4" />
        <path
           inkscape:connector-curvature="0"
           id="path3032"
           style="font-variant:normal;font-stretch:normal;fill:#2d5016;fill-opacity:1;font-family:Mini Pixel-7;-inkscape-font-specification:Mini Pixel-7"
           d="m 269.10124,924.21497 2,0 0,-2 8,0 0,2 2,0 0,8 -8,0 0,2 8,0 0,4 -10,0 0,-2 -2,0 0,-12 m 4,2 0,2 4,0 0,-2 -4,0" />
        <path
           inkscape:connector-curvature="0"
           id="path3034"
           style="font-variant:normal;font-stretch:normal;fill:#2d5016;fill-opacity:1;font-family:Mini Pixel-7;-inkscape-font-specification:Mini Pixel-7"
           d="m 283.09374,924.21497 2,0 0,-2 8,0 0,2 2,0 0,4 -4,0 0,-2 -4,0 0,8 4,0 0,-2 4,0 0,4 -2,0 0,2 -8,0 0,-2 -2,0 0,-12" />
      </g>
    </g>
  </g>
</svg>
