<?xml version="1.0" encoding="UTF-8" standalone="no"?>
<!-- Created with Inkscape (http://www.inkscape.org/) -->

<svg
   xmlns:dc="http://purl.org/dc/elements/1.1/"
   xmlns:cc="http://creativecommons.org/ns#"
   xmlns:rdf="http://www.w3.org/1999/02/22-rdf-syntax-ns#"
   xmlns:svg="http://www.w3.org/2000/svg"
   xmlns="http://www.w3.org/2000/svg"
   xmlns:sodipodi="http://sodipodi.sourceforge.net/DTD/sodipodi-0.dtd"
   xmlns:inkscape="http://www.inkscape.org/namespaces/inkscape"
   width="1280"
   height="800"
   id="svg4043"
   version="1.1"
   inkscape:version="0.48.3.1 r9886"
   sodipodi:docname="site.svg">
  <defs
     id="defs4045" />
  <sodipodi:namedview
     id="base"
     pagecolor="#ffffff"
     bordercolor="#666666"
     borderopacity="1.0"
     inkscape:pageopacity="0.0"
     inkscape:pageshadow="2"
     inkscape:zoom="0.35"
     inkscape:cx="1163.3692"
     inkscape:cy="306.75782"
     inkscape:document-units="px"
     inkscape:current-layer="capa1"
     showgrid="false"
     width="1280px"
     inkscape:window-width="1365"
     inkscape:window-height="766"
     inkscape:window-x="0"
     inkscape:window-y="1080"
     inkscape:window-maximized="0"
     showguides="true"
     inkscape:guide-bbox="true">
    <sodipodi:guide
       orientation="1,0"
       position="100,-440"
       id="guide3002" />
    <sodipodi:guide
       orientation="1,0"
       position="1180,-454.28571"
       id="guide3004" />
  </sodipodi:namedview>
  <metadata
     id="metadata4048">
    <rdf:RDF>
      <cc:Work
         rdf:about="">
        <dc:format>image/svg+xml</dc:format>
        <dc:type
           rdf:resource="http://purl.org/dc/dcmitype/StillImage" />
        <dc:title />
      </cc:Work>
    </rdf:RDF>
  </metadata>
  <g
     inkscape:label="Capa 1"
     inkscape:groupmode="layer"
     id="capa1"
     transform="translate(0,-252.36218)">
    <rect
       style="fill:#dde9af;fill-opacity:1;stroke:none"
       id="rect3192-3"
       width="1280"
       height="800"
       x="0"
       y="252.36218" />
    <rect
       style="fill:#c3d973;fill-opacity:1;stroke:none"
       id="rect3192"
       width="1280"
       height="138.57143"
       x="0"
       y="252.36218" />
    <g
       id="g4600"
       transform="translate(72.090627,-4.5116113)">
      <path
         inkscape:export-ydpi="90"
         inkscape:export-xdpi="90"
         inkscape:export-filename="/home/bromagosa/edutec/devdocs/logo.png"
         inkscape:connector-curvature="0"
         id="rect6639"
         d="m 27.909373,271.65951 0,55.82925 0,29.24393 0,23.92681 8,0 0,-23.92681 16.00001,0 0,23.92681 7.99999,0 0,-23.92681 24.00002,0 0,23.92681 7.99999,0 0,-23.92681 16.000007,0 0,23.92681 8,0 0,-23.92681 0,-15.95122 7.99997,0 0,-37.21953 0,-15.95122 -7.99997,0 0,15.95122 -24.000007,0 0,-15.95122 -7.99999,0 0,15.95122 0,23.92682 -48.00002,0 0,-55.82925 -8,0 z m 64.00001,39.87804 8,0 0,7.97562 -8,0 0,-7.97562 z m 16.000007,0 8,0 0,7.97562 -8,0 0,-7.97562 z"
         style="fill:#2d5016;fill-opacity:1;stroke:none" />
      <g
         inkscape:export-ydpi="90"
         inkscape:export-xdpi="90"
         inkscape:export-filename="/home/bromagosa/edutec/devdocs/logo.png"
         transform="matrix(0.46666667,0,0,0.46666667,-322.34377,-58.811615)"
         id="text6745"
         style="font-size:119.99999237px;font-style:normal;font-weight:normal;line-height:125%;letter-spacing:0px;word-spacing:0px;fill:#2d5016;fill-opacity:1;stroke:none;font-family:Sans">
        <path
           id="path3045"
           style="font-variant:normal;font-stretch:normal;fill:#2d5016;font-family:Minecraftia;-inkscape-font-specification:Minecraftia"
           d="m 1046.2567,941.72382 0,-15 60,0 0,15 -60,0 m -15,-15 0,-45 15,0 0,15 45,0 0,-15 15,0 0,30 -60,0 0,15 -15,0 m 15,-45 0,-15 45,0 0,15 -45,0"
           inkscape:connector-curvature="0" />
        <path
           id="path3047"
           style="font-variant:normal;font-stretch:normal;fill:#2d5016;font-family:Minecraftia;-inkscape-font-specification:Minecraftia"
           d="m 1121.2567,926.72382 0,-45 15,0 0,45 -15,0 m 15,-45 0,-15 30,0 0,15 -30,0 m 0,60 0,-15 45,0 0,-30 -15,0 0,-15 15,0 0,-45 15,0 0,105 -60,0"
           inkscape:connector-curvature="0" />
        <path
           id="path3049"
           style="font-variant:normal;font-stretch:normal;fill:#2d5016;font-family:Minecraftia;-inkscape-font-specification:Minecraftia"
           d="m 1211.2567,926.72382 0,-60 15,0 0,60 -15,0 m 15,15 0,-15 45,0 0,-60 15,0 0,75 -60,0"
           inkscape:connector-curvature="0" />
        <path
           id="path3051"
           style="font-variant:normal;font-stretch:normal;fill:#2d5016;font-family:Minecraftia;-inkscape-font-specification:Minecraftia"
           d="m 1331.2567,941.72382 0,-15 15,0 0,15 -15,0 m -15,-15 0,-45 -15,0 0,-15 15,0 0,-30 15,0 0,30 15,0 0,15 -15,0 0,45 -15,0"
           inkscape:connector-curvature="0" />
        <path
           id="path3053"
           style="font-variant:normal;font-stretch:normal;fill:#2d5016;font-family:Minecraftia;-inkscape-font-specification:Minecraftia"
           d="m 1376.2567,941.72382 0,-15 60,0 0,15 -60,0 m -15,-15 0,-45 15,0 0,15 45,0 0,-15 15,0 0,30 -60,0 0,15 -15,0 m 15,-45 0,-15 45,0 0,15 -45,0"
           inkscape:connector-curvature="0" />
        <path
           id="path3055"
           style="font-variant:normal;font-stretch:normal;fill:#2d5016;font-family:Minecraftia;-inkscape-font-specification:Minecraftia"
           d="m 1466.2567,941.72382 0,-15 45,0 0,15 -45,0 m 45,-15 0,-15 15,0 0,15 -15,0 m -60,0 0,-45 15,0 0,45 -15,0 m 60,-30 0,-15 15,0 0,15 -15,0 m -45,-15 0,-15 45,0 0,15 -45,0"
           inkscape:connector-curvature="0" />
      </g>
    </g>
    <rect
       style="fill:#2d5016;fill-opacity:1;stroke:none"
       id="rect4610"
       width="1280"
       height="5"
       x="0"
       y="390.93359" />
  </g>
</svg>
